:FULLY-SPECIFIED
:FORCE-ALL-JOINTS-BE-3DOF
:DEGREES
2854
root -3.36926 14.9125 -29.3297 1204.96 -46.2278 -127.193
lfemur -41.3343 29.5551 -5.91759
ltibia 51.0961 0 0
lfoot 0.325088 1.83262 0
ltoes -21.0617 0 0
rfemur -27.4186 -14.4935 18.6337
rtibia 69.9897 0 0
rfoot -27.2697 -20.3538 0
rtoes -15.4868 0 0
lowerback 13.2966 4.94545 0.655256
upperback -3.01157 6.9312 1.60083
thorax -10.8059 3.29218 -0.322197
lowerneck -3.84353 6.2928 0.189324
upperneck 8.80154 8.23003 2.12903
head 3.61371 4.16751 0.888811
lclavicle -8.44547e-15 -1.20817e-14 0
lhumerus -12.1901 6.97625 87.8229
lradius 81.4686 0 0
lwrist -18.5402 0 0
lhand -39.1159 389.354 0
lfingers 7.12502 0 0
lthumb -12.1145 -661.037 0
rclavicle -8.44547e-15 -1.20817e-14 0
rhumerus -54.118 39.5754 -102.454
rradius 95.5369 0 0
rwrist -67.7808 0 0
rhand -1.97962 -389.149 0
rfingers 7.12502 0 0
rthumb 23.6716 302.545 0
2855
root -3.35839 14.9175 -29.3395 1204.65 -46.0993 -126.874
lfemur -41.2666 29.4778 -5.9234
ltibia 51.053 0 0
lfoot 0.281567 1.8537 0
ltoes -21.1072 0 0
rfemur -27.3925 -14.4569 18.6312
rtibia 69.9102 0 0
rfoot -27.2328 -20.3545 0
rtoes -15.4958 0 0
lowerback 13.277 4.93821 0.651911
upperback -3.01584 6.92102 1.60144
thorax -10.7993 3.28771 -0.316497
lowerneck -3.84978 6.2641 0.170689
upperneck 8.81157 8.19196 2.13922
head 3.6181 4.1486 0.893312
lclavicle -8.357e-15 -1.20194e-14 0
lhumerus -12.2565 6.95133 87.8423
lradius 81.3268 0 0
lwrist -18.5407 0 0
lhand -39.1025 389.359 0
lfingers 7.12502 0 0
lthumb -12.1015 -661.032 0
rclavicle -8.357e-15 -1.20194e-14 0
rhumerus -54.0861 39.4845 -102.408
rradius 95.3834 0 0
rwrist -67.6135 0 0
rhand -2.02017 -389.163 0
rfingers 7.12502 0 0
rthumb 23.6326 302.528 0
2856
root -3.3475 14.9224 -29.3492 1204.33 -45.9706 -126.553
lfemur -41.1988 29.4002 -5.92925
ltibia 51.0099 0 0
lfoot 0.237946 1.87485 0
ltoes -21.1528 0 0
rfemur -27.3663 -14.4203 18.6287
rtibia 69.8305 0 0
rfoot -27.1959 -20.3552 0
rtoes -15.5048 0 0
lowerback 13.2575 4.93094 0.648553
upperback -3.0201 6.9108 1.60206
thorax -10.7926 3.28322 -0.310781
lowerneck -3.85604 6.23535 0.152006
upperneck 8.82161 8.15382 2.14943
head 3.6225 4.12965 0.897824
lclavicle -8.26815e-15 -1.19568e-14 0
lhumerus -12.3228 6.92623 87.8616
lradius 81.1847 0 0
lwrist -18.5412 0 0
lhand -39.089 389.364 0
lfingers 7.12502 0 0
lthumb -12.0885 -661.026 0
rclavicle -8.26815e-15 -1.19568e-14 0
rhumerus -54.0539 39.3935 -102.363
rradius 95.2295 0 0
rwrist -67.4457 0 0
rhand -2.06082 -389.177 0
rfingers 7.12502 0 0
rthumb 23.5935 302.51 0
2857
root -3.33657 14.9274 -29.359 1204.02 -45.8417 -126.233
lfemur -41.1309 29.3225 -5.93513
ltibia 50.9667 0 0
lfoot 0.194226 1.89606 0
ltoes -21.1985 0 0
rfemur -27.3401 -14.3836 18.6262
rtibia 69.7507 0 0
rfoot -27.1589 -20.3559 0
rtoes -15.5138 0 0
lowerback 13.2378 4.92366 0.645181
upperback -3.02437 6.90055 1.60268
thorax -10.786 3.27872 -0.305049
lowerneck -3.86231 6.20653 0.133275
upperneck 8.83165 8.1156 2.15966
head 3.6269 4.11067 0.902346
lclavicle -8.17892e-15 -1.18941e-14 0
lhumerus -12.3889 6.90092 87.8807
lradius 81.0423 0 0
lwrist -18.5417 0 0
lhand -39.0755 389.369 0
lfingers 7.12502 0 0
lthumb -12.0755 -661.02 0
rclavicle -8.17892e-15 -1.18941e-14 0
rhumerus -54.0215 39.3024 -102.317
rradius 95.0752 0 0
rwrist -67.2773 0 0
rhand -2.10155 -389.191 0
rfingers 7.12502 0 0
rthumb 23.5544 302.492 0
2858
root -3.32561 14.9325 -29.3688 1203.71 -45.7127 -125.912
lfemur -41.063 29.2446 -5.94106
ltibia 50.9235 0 0
lfoot 0.150407 1.91734 0
ltoes -21.2444 0 0
rfemur -27.3139 -14.3468 18.6237
rtibia 69.6706 0 0
rfoot -27.1218 -20.3565 0
rtoes -15.5228 0 0
lowerback 13.2182 4.91635 0.641796
upperback -3.02864 6.89027 1.6033
thorax -10.7794 3.2742 -0.299302
lowerneck -3.86859 6.17767 0.114497
upperneck 8.8417 8.07731 2.16991
head 3.6313 4.09165 0.906877
lclavicle -8.08932e-15 -1.18311e-14 0
lhumerus -12.4549 6.87543 87.8997
lradius 80.8997 0 0
lwrist -18.5423 0 0
lhand -39.062 389.374 0
lfingers 7.12502 0 0
lthumb -12.0624 -661.015 0
rclavicle -8.08932e-15 -1.18311e-14 0
rhumerus -53.9887 39.2113 -102.271
rradius 94.9206 0 0
rwrist -67.1085 0 0
rhand -2.14237 -389.205 0
rfingers 7.12502 0 0
rthumb 23.5151 302.474 0
2859
root -3.31462 14.9375 -29.3786 1203.4 -45.5834 -125.59
lfemur -40.9948 29.1665 -5.94702
ltibia 50.8802 0 0
lfoot 0.10649 1.93869 0
ltoes -21.2904 0 0
rfemur -27.2877 -14.3099 18.6212
rtibia 69.5904 0 0
rfoot -27.0846 -20.3571 0
rtoes -15.5317 0 0
lowerback 13.1985 4.90903 0.638399
upperback -3.03291 6.87997 1.60391
thorax -10.7727 3.26967 -0.29354
lowerneck -3.87488 6.14874 0.0956713
upperneck 8.85176 8.03895 2.18017
head 3.6357 4.07259 0.911418
lclavicle -7.99934e-15 -1.17679e-14 0
lhumerus -12.5207 6.84974 87.9186
lradius 80.7569 0 0
lwrist -18.5429 0 0
lhand -39.0484 389.379 0
lfingers 7.12502 0 0
lthumb -12.0493 -661.009 0
rclavicle -7.99934e-15 -1.17679e-14 0
rhumerus -53.9557 39.12 -102.224
rradius 94.7657 0 0
rwrist -66.9391 0 0
rhand -2.18327 -389.22 0
rfingers 7.12502 0 0
rthumb 23.4758 302.456 0
2860
root -3.3036 14.9425 -29.3884 1203.08 -45.4539 -125.267
lfemur -40.9266 29.0882 -5.95301
ltibia 50.8369 0 0
lfoot 0.0624758 1.9601 0
ltoes -21.3365 0 0
rfemur -27.2615 -14.273 18.6188
rtibia 69.51 0 0
rfoot -27.0473 -20.3576 0
rtoes -15.5407 0 0
lowerback 13.1788 4.90168 0.634988
upperback -3.03717 6.86963 1.60453
thorax -10.7661 3.26513 -0.287763
lowerneck -3.88118 6.11977 0.076799
upperneck 8.86182 8.00052 2.19046
head 3.64011 4.05349 0.915969
lclavicle -7.90899e-15 -1.17044e-14 0
lhumerus -12.5864 6.82387 87.9373
lradius 80.6139 0 0
lwrist -18.5436 0 0
lhand -39.0348 389.384 0
lfingers 7.12502 0 0
lthumb -12.0361 -661.004 0
rclavicle -7.90899e-15 -1.17044e-14 0
rhumerus -53.9223 39.0286 -102.177
rradius 94.6104 0 0
rwrist -66.7692 0 0
rhand -2.22427 -389.234 0
rfingers 7.12502 0 0
rthumb 23.4364 302.438 0
2861
root -3.29254 14.9476 -29.3983 1202.77 -45.3243 -124.944
lfemur -40.8583 29.0097 -5.95904
ltibia 50.7936 0 0
lfoot 0.0183654 1.98158 0
ltoes -21.3827 0 0
rfemur -27.2352 -14.236 18.6163
rtibia 69.4294 0 0
rfoot -27.0099 -20.358 0
rtoes -15.5496 0 0
lowerback 13.1591 4.89432 0.631565
upperback -3.04144 6.85927 1.60515
thorax -10.7594 3.26058 -0.28197
lowerneck -3.88749 6.09073 0.0578801
upperneck 8.87189 7.96201 2.20077
head 3.64452 4.03436 0.920529
lclavicle -7.81827e-15 -1.16408e-14 0
lhumerus -12.652 6.7978 87.9559
lradius 80.4706 0 0
lwrist -18.5442 0 0
lhand -39.0211 389.389 0
lfingers 7.12502 0 0
lthumb -12.023 -660.998 0
rclavicle -7.81827e-15 -1.16408e-14 0
rhumerus -53.8887 38.9372 -102.131
rradius 94.4548 0 0
rwrist -66.5989 0 0
rhand -2.26534 -389.248 0
rfingers 7.12502 0 0
rthumb 23.3969 302.42 0
2862
root -3.28145 14.9526 -29.4081 1202.45 -45.1945 -124.621
lfemur -40.7899 28.931 -5.96511
ltibia 50.7502 0 0
lfoot -0.0258405 2.00313 0
ltoes -21.4291 0 0
rfemur -27.2089 -14.1989 18.6139
rtibia 69.3486 0 0
rfoot -26.9724 -20.3584 0
rtoes -15.5585 0 0
lowerback 13.1394 4.88693 0.628129
upperback -3.04571 6.84888 1.60577
thorax -10.7527 3.25601 -0.276163
lowerneck -3.89381 6.06165 0.0389152
upperneck 8.88196 7.92343 2.2111
head 3.64893 4.0152 0.925099
lclavicle -7.72719e-15 -1.15769e-14 0
lhumerus -12.7174 6.77155 87.9744
lradius 80.3271 0 0
lwrist -18.5449 0 0
lhand -39.0074 389.394 0
lfingers 7.12502 0 0
lthumb -12.0097 -660.993 0
rclavicle -7.72719e-15 -1.15769e-14 0
rhumerus -53.8548 38.8457 -102.084
rradius 94.2989 0 0
rwrist -66.428 0 0
rhand -2.3065 -389.262 0
rfingers 7.12502 0 0
rthumb 23.3573 302.402 0
2863
root -3.27033 14.9577 -29.418 1202.14 -45.0645 -124.296
lfemur -40.7214 28.8521 -5.97121
ltibia 50.7068 0 0
lfoot -0.0701412 2.02474 0
ltoes -21.4756 0 0
rfemur -27.1826 -14.1618 18.6115
rtibia 69.2676 0 0
rfoot -26.9348 -20.3588 0
rtoes -15.5674 0 0
lowerback 13.1196 4.87953 0.62468
upperback -3.04997 6.83845 1.60638
thorax -10.746 3.25143 -0.270341
lowerneck -3.90014 6.03251 0.0199046
upperneck 8.89204 7.88479 2.22144
head 3.65334 3.996 0.929679
lclavicle -7.63574e-15 -1.15128e-14 0
lhumerus -12.7826 6.74511 87.9927
lradius 80.1833 0 0
lwrist -18.5457 0 0
lhand -38.9936 389.399 0
lfingers 7.12502 0 0
lthumb -11.9965 -660.987 0
rclavicle -7.63574e-15 -1.15128e-14 0
rhumerus -53.8206 38.7541 -102.036
rradius 94.1426 0 0
rwrist -66.2567 0 0
rhand -2.34775 -389.276 0
rfingers 7.12502 0 0
rthumb 23.3177 302.384 0
2864
root -3.25918 14.9628 -29.4279 1201.82 -44.9343 -123.972
lfemur -40.6527 28.7731 -5.97735
ltibia 50.6634 0 0
lfoot -0.114536 2.04641 0
ltoes -21.5223 0 0
rfemur -27.1562 -14.1245 18.6091
rtibia 69.1865 0 0
rfoot -26.8972 -20.3591 0
rtoes -15.5762 0 0
lowerback 13.0999 4.87211 0.621218
upperback -3.05424 6.828 1.607
thorax -10.7392 3.24684 -0.264505
lowerneck -3.90648 6.00331 0.000848661
upperneck 8.90212 7.84607 2.2318
head 3.65776 3.97676 0.934268
lclavicle -7.54393e-15 -1.14485e-14 0
lhumerus -12.8477 6.71848 88.0109
lradius 80.0394 0 0
lwrist -18.5464 0 0
lhand -38.9799 389.404 0
lfingers 7.12502 0 0
lthumb -11.9832 -660.981 0
rclavicle -7.54393e-15 -1.14485e-14 0
rhumerus -53.7862 38.6624 -101.989
rradius 93.986 0 0
rwrist -66.0849 0 0
rhand -2.38907 -389.291 0
rfingers 7.12502 0 0
rthumb 23.2779 302.366 0
2865
root -3.248 14.9679 -29.4378 1201.5 -44.804 -123.646
lfemur -40.584 28.6939 -5.98352
ltibia 50.6199 0 0
lfoot -0.159024 2.06815 0
ltoes -21.5691 0 0
rfemur -27.1298 -14.0873 18.6067
rtibia 69.1052 0 0
rfoot -26.8594 -20.3594 0
rtoes -15.585 0 0
lowerback 13.08 4.86467 0.617744
upperback -3.0585 6.81753 1.60762
thorax -10.7325 3.24224 -0.258653
lowerneck -3.91283 5.97407 -0.0182523
upperneck 8.91221 7.80728 2.24219
head 3.66218 3.95749 0.938866
lclavicle -7.45176e-15 -1.1384e-14 0
lhumerus -12.9127 6.69167 88.029
lradius 79.8952 0 0
lwrist -18.5472 0 0
lhand -38.966 389.409 0
lfingers 7.12502 0 0
lthumb -11.9698 -660.976 0
rclavicle -7.45176e-15 -1.1384e-14 0
rhumerus -53.7514 38.5706 -101.941
rradius 93.8291 0 0
rwrist -65.9126 0 0
rhand -2.43048 -389.305 0
rfingers 7.12502 0 0
rthumb 23.2381 302.348 0
